HIERARCHY
ROOT Hips
{
	OFFSET 0.000000 121.760803 0.000000
	CHANNELS 6 Xposition Yposition Zposition Xrotation Yrotation Zrotation 
	JOINT Spine
	{
		OFFSET 0.072000 7.257294 -0.789700
		CHANNELS 3 Xrotation Yrotation Zrotation
		JOINT Spine1
		{
			OFFSET 0.000000 12.508769 -0.658067
			CHANNELS 3 Xrotation Yrotation Zrotation
			JOINT Spine1_split
			{
				OFFSET 0.000000 12.508769 -0.658067
				CHANNELS 3 Xrotation Yrotation Zrotation
				JOINT Spine2
				{
					OFFSET 0.000000 12.508769 -0.658067
					CHANNELS 3 Xrotation Yrotation Zrotation
					JOINT Neck
					{
						OFFSET 0.000000 14.033295 7.520400
						CHANNELS 3 Xrotation Yrotation Zrotation
						JOINT Head
						{
							OFFSET 0.000000 8.198502 5.703100
							CHANNELS 3 Xrotation Yrotation Zrotation
							JOINT HeadTop_End
							{
								OFFSET 0.000000 17.760803 13.332701
								CHANNELS 3 Xrotation Yrotation Zrotation
								End Site
								{
									OFFSET 0.000000 0.000000 0.000000
								}
							}
						}
					}
					JOINT LeftShoulder
					{
						OFFSET 6.292450 5.785301 -0.669000
						CHANNELS 3 Xrotation Yrotation Zrotation
						JOINT LeftShoulder_split
						{
							OFFSET 6.292450 5.785301 -0.669000
							CHANNELS 3 Xrotation Yrotation Zrotation
							JOINT LeftArm
							{
								OFFSET 13.907140 -6.093903 1.965100
								CHANNELS 3 Xrotation Yrotation Zrotation
								JOINT LeftForeArm
								{
									OFFSET 34.140198 0.000000 0.000000
									CHANNELS 3 Xrotation Yrotation Zrotation
									JOINT LeftHand
									{
										OFFSET 40.960209 0.000000 0.000000
										CHANNELS 3 Xrotation Yrotation Zrotation
										JOINT LeftHandThumb1
										{
											OFFSET 10.006996 -7.170425 9.573125
											CHANNELS 3 Xrotation Yrotation Zrotation
											JOINT LeftHandThumb2
											{
												OFFSET 1.835007 -1.059448 1.059443
												CHANNELS 3 Xrotation Yrotation Zrotation
												JOINT LeftHandThumb3
												{
													OFFSET 2.112267 -1.219513 1.219518
													CHANNELS 3 Xrotation Yrotation Zrotation
													JOINT LeftHandThumb4
													{
														OFFSET 4.843811 -2.796570 2.796576
														CHANNELS 3 Xrotation Yrotation Zrotation
														End Site
														{
															OFFSET 0.000000 0.000000 0.000000
														}
													}
												}
											}
										}
										JOINT LeftHandIndex1
										{
											OFFSET 18.389847 -0.922348 4.596882
											CHANNELS 3 Xrotation Yrotation Zrotation
											JOINT LeftHandIndex2
											{
												OFFSET 4.711273 0.000000 0.000000
												CHANNELS 3 Xrotation Yrotation Zrotation
												JOINT LeftHandIndex3
												{
													OFFSET 2.886131 0.000000 0.000000
													CHANNELS 3 Xrotation Yrotation Zrotation
													JOINT LeftHandIndex4
													{
														OFFSET 6.145912 0.000000 0.000000
														CHANNELS 3 Xrotation Yrotation Zrotation
														End Site
														{
															OFFSET 0.000000 0.000000 0.000000
														}
													}
												}
											}
										}
										JOINT LeftHandMiddle1
										{
											OFFSET 18.013008 0.000000 0.000000
											CHANNELS 3 Xrotation Yrotation Zrotation
											JOINT LeftHandMiddle2
											{
												OFFSET 4.946693 0.000000 0.000000
												CHANNELS 3 Xrotation Yrotation Zrotation
												JOINT LeftHandMiddle3
												{
													OFFSET 3.342232 0.000000 0.000000
													CHANNELS 3 Xrotation Yrotation Zrotation
													JOINT LeftHandMiddle4
													{
														OFFSET 4.461754 0.000000 0.000000
														CHANNELS 3 Xrotation Yrotation Zrotation
														End Site
														{
															OFFSET 0.000000 0.000000 0.000000
														}
													}
												}
											}
										}
										JOINT LeftHandRing1
										{
											OFFSET 15.849892 -0.102921 -4.126150
											CHANNELS 3 Xrotation Yrotation Zrotation
											JOINT LeftHandRing2
											{
												OFFSET 3.527054 0.000000 0.000000
												CHANNELS 3 Xrotation Yrotation Zrotation
												JOINT LeftHandRing3
												{
													OFFSET 2.961098 0.000000 0.000000
													CHANNELS 3 Xrotation Yrotation Zrotation
													JOINT LeftHandRing4
													{
														OFFSET 4.927200 0.000000 0.000000
														CHANNELS 3 Xrotation Yrotation Zrotation
														End Site
														{
															OFFSET 0.000000 0.000000 0.000000
														}
													}
												}
											}
										}
										JOINT LeftHandPinky1
										{
											OFFSET 12.791824 -0.832031 -6.799156
											CHANNELS 3 Xrotation Yrotation Zrotation
											JOINT LeftHandPinky2
											{
												OFFSET 3.327133 0.000000 0.000000
												CHANNELS 3 Xrotation Yrotation Zrotation
												JOINT LeftHandPinky3
												{
													OFFSET 3.014900 0.000000 0.000000
													CHANNELS 3 Xrotation Yrotation Zrotation
													JOINT LeftHandPinky4
													{
														OFFSET 5.847786 0.000000 0.000000
														CHANNELS 3 Xrotation Yrotation Zrotation
														End Site
														{
															OFFSET 0.000000 0.000000 0.000000
														}
													}
												}
											}
										}
									}
								}
							}
						}
					}
					JOINT RightShoulder
					{
						OFFSET -6.292450 5.785301 -0.669000
						CHANNELS 3 Xrotation Yrotation Zrotation
						JOINT RightShoulder_split
						{
							OFFSET -6.292450 5.785301 -0.669000
							CHANNELS 3 Xrotation Yrotation Zrotation
							JOINT RightArm
							{
								OFFSET -13.907140 -6.093903 1.965100
								CHANNELS 3 Xrotation Yrotation Zrotation
								JOINT RightForeArm
								{
									OFFSET -34.140198 0.000000 0.000000
									CHANNELS 3 Xrotation Yrotation Zrotation
									JOINT RightHand
									{
										OFFSET -40.960209 0.000000 0.000000
										CHANNELS 3 Xrotation Yrotation Zrotation
										JOINT RightHandThumb1
										{
											OFFSET -10.007050 -7.170456 9.573117
											CHANNELS 3 Xrotation Yrotation Zrotation
											JOINT RightHandThumb2
											{
												OFFSET -1.835007 -1.059448 1.059443
												CHANNELS 3 Xrotation Yrotation Zrotation
												JOINT RightHandThumb3
												{
													OFFSET -2.112267 -1.219513 1.219518
													CHANNELS 3 Xrotation Yrotation Zrotation
													JOINT RightHandThumb4
													{
														OFFSET -4.843834 -2.796585 2.796590
														CHANNELS 3 Xrotation Yrotation Zrotation
														End Site
														{
															OFFSET 0.000000 0.000000 0.000000
														}
													}
												}
											}
										}
										JOINT RightHandIndex1
										{
											OFFSET -18.389870 -0.922424 4.596786
											CHANNELS 3 Xrotation Yrotation Zrotation
											JOINT RightHandIndex2
											{
												OFFSET -4.711273 0.000000 0.000000
												CHANNELS 3 Xrotation Yrotation Zrotation
												JOINT RightHandIndex3
												{
													OFFSET -2.886131 0.000000 0.000000
													CHANNELS 3 Xrotation Yrotation Zrotation
													JOINT RightHandIndex4
													{
														OFFSET -6.145920 0.000000 0.000000
														CHANNELS 3 Xrotation Yrotation Zrotation
														End Site
														{
															OFFSET 0.000000 0.000000 0.000000
														}
													}
												}
											}
										}
										JOINT RightHandMiddle1
										{
											OFFSET -18.013008 0.000000 0.000000
											CHANNELS 3 Xrotation Yrotation Zrotation
											JOINT RightHandMiddle2
											{
												OFFSET -4.946693 0.000000 0.000000
												CHANNELS 3 Xrotation Yrotation Zrotation
												JOINT RightHandMiddle3
												{
													OFFSET -3.342232 0.000000 0.000000
													CHANNELS 3 Xrotation Yrotation Zrotation
													JOINT RightHandMiddle4
													{
														OFFSET -4.461754 0.000000 0.000000
														CHANNELS 3 Xrotation Yrotation Zrotation
														End Site
														{
															OFFSET 0.000000 0.000000 0.000000
														}
													}
												}
											}
										}
										JOINT RightHandRing1
										{
											OFFSET -15.849876 -0.102936 -4.126237
											CHANNELS 3 Xrotation Yrotation Zrotation
											JOINT RightHandRing2
											{
												OFFSET -3.527054 0.000000 0.000000
												CHANNELS 3 Xrotation Yrotation Zrotation
												JOINT RightHandRing3
												{
													OFFSET -2.961098 0.000000 0.000000
													CHANNELS 3 Xrotation Yrotation Zrotation
													JOINT RightHandRing4
													{
														OFFSET -4.927200 0.000000 0.000000
														CHANNELS 3 Xrotation Yrotation Zrotation
														End Site
														{
															OFFSET 0.000000 0.000000 0.000000
														}
													}
												}
											}
										}
										JOINT RightHandPinky1
										{
											OFFSET -12.791786 -0.832077 -6.799222
											CHANNELS 3 Xrotation Yrotation Zrotation
											JOINT RightHandPinky2
											{
												OFFSET -3.327133 0.000000 0.000000
												CHANNELS 3 Xrotation Yrotation Zrotation
												JOINT RightHandPinky3
												{
													OFFSET -3.014900 0.000000 0.000000
													CHANNELS 3 Xrotation Yrotation Zrotation
													JOINT RightHandPinky4
													{
														OFFSET -5.847786 0.000000 0.000000
														CHANNELS 3 Xrotation Yrotation Zrotation
														End Site
														{
															OFFSET 0.000000 0.000000 0.000000
														}
													}
												}
											}
										}
									}
								}
							}
						}
					}
				}
			}
		}
	}
	JOINT LeftUpLeg
	{
		OFFSET 13.026900 -6.336304 -1.092800
		CHANNELS 3 Xrotation Yrotation Zrotation
		JOINT LeftLeg
		{
			OFFSET 0.524474 -46.096886 9.782700
			CHANNELS 3 Xrotation Yrotation Zrotation
			JOINT LeftFoot
			{
				OFFSET -0.524474 -53.427422 -12.948200
				CHANNELS 3 Xrotation Yrotation Zrotation
				JOINT LeftToeBase
				{
					OFFSET 0.192200 -14.009700 16.364100
					CHANNELS 3 Xrotation Yrotation Zrotation
					JOINT LeftToe_End
					{
						OFFSET -1.784700 -0.561700 9.474800
						CHANNELS 3 Xrotation Yrotation Zrotation
						End Site
						{
							OFFSET 0.000000 0.000000 0.000000
						}
					}
				}
			}
		}
	}
	JOINT RightUpLeg
	{
		OFFSET -12.883000 -6.336304 -1.092800
		CHANNELS 3 Xrotation Yrotation Zrotation
		JOINT RightLeg
		{
			OFFSET -0.524587 -46.096825 9.782800
			CHANNELS 3 Xrotation Yrotation Zrotation
			JOINT RightFoot
			{
				OFFSET 0.524587 -53.427383 -12.948300
				CHANNELS 3 Xrotation Yrotation Zrotation
				JOINT RightToeBase
				{
					OFFSET -0.192200 -14.009700 16.364100
					CHANNELS 3 Xrotation Yrotation Zrotation
					JOINT RightToe_End
					{
						OFFSET 1.784700 -0.561700 9.474800
						CHANNELS 3 Xrotation Yrotation Zrotation
						End Site
						{
							OFFSET 0.000000 0.000000 0.000000
						}
					}
				}
			}
		}
	}
}
MOTION
Frames: 4
Frame Time: 0.016667
-1.381854 102.354996 0.136721 -10.685746 -53.690515 -1.828606 6.712402 0.907072 -3.248507 13.440116 1.505931 -5.282129 0.000000 0.000000 0.000000 13.440116 1.505917 -5.282120 3.996207 2.607472 -0.466377 -8.638512 40.681317 -5.376922 -0.000001 0.000000 -0.000001 -0.177274 -6.033938 5.204524 0.000000 0.000000 0.000000 -21.071660 17.785766 -57.231484 -0.000011 -126.318748 0.000000 -6.641478 -5.398328 -3.626835 -2.154150 6.800154 9.892476 25.836150 36.182425 -25.085226 4.659073 20.247616 19.841570 0.000007 -0.000001 -0.000001 20.887343 7.645970 -92.409611 7.469770 5.623440 -106.086853 5.011190 5.790679 -81.733022 0.000002 -0.000001 -0.000001 12.668633 7.118924 -99.980459 7.120927 5.712068 -102.555994 4.565672 5.708599 -77.288010 -0.000000 0.000003 -0.000002 5.682275 8.252713 -95.779470 8.216146 5.353280 -113.878767 3.072447 5.151224 -61.606121 0.000003 0.000004 0.000003 -3.644683 8.906856 -93.940031 7.168191 5.701397 -103.031081 6.923516 5.752290 -100.579494 -0.000000 -0.000003 -0.000000 10.920043 26.931040 3.130398 0.000000 0.000000 0.000000 -46.478191 38.185873 48.496098 0.000049 110.564514 -0.000028 -26.511565 16.043004 15.588606 -8.123072 -3.695111 -18.700527 26.149296 -37.962116 25.226194 5.914723 -26.474920 -20.697051 -0.000000 0.000000 -0.000000 19.570621 -6.576486 91.648530 5.944055 -4.476216 106.057668 3.989509 -4.609166 81.748629 -0.000000 -0.000001 -0.000002 11.200853 -5.955897 99.192686 5.666696 -4.546664 102.532710 3.635289 -4.543923 77.311581 0.000002 -0.000004 -0.000001 4.287413 -6.986219 95.001600 6.537646 -4.261407 113.838141 2.447715 -4.100723 61.652033 0.000000 0.000000 0.000002 -5.006104 -7.516092 93.188130 5.704265 -4.538175 103.006964 5.509740 -4.578636 100.559728 0.000000 -0.000001 -0.000002 -25.516381 14.268989 20.738937 39.573539 -3.838366 -0.847541 -4.241506 1.531916 -15.362081 -2.483930 0.000005 -0.000002 -0.000000 -0.000002 -0.000000 -25.471411 -0.021945 -21.244774 48.609080 3.332330 -7.958910 -14.906005 -3.091637 16.575768 -2.290970 0.000011 -0.000001 0.000000 -0.000002 -0.000000 
-2.099682 102.407158 -0.735794 -10.908516 -53.214789 -1.303453 6.890667 0.456515 -4.002874 13.428629 1.385311 -5.296944 0.000000 0.000000 0.000000 13.420768 1.411932 -5.309468 4.071274 2.649586 -0.515531 -6.896912 40.845170 -6.341593 -0.000000 0.000000 0.000000 -0.474783 -6.155466 3.198669 0.000000 0.000000 0.000000 -17.792040 18.997983 -56.886009 0.000004 -127.660648 -0.000011 -8.813705 -2.100050 4.977256 -2.188141 6.630869 9.840813 25.854682 36.200033 -25.080880 4.657088 20.274489 19.846879 -0.000001 -0.000001 0.000001 20.610391 7.814793 -91.789273 7.445547 5.630331 -105.840017 4.988351 5.787333 -81.506608 0.000000 -0.000001 0.000000 12.580248 7.208631 -99.250196 7.098238 5.717043 -102.328043 4.544094 5.703718 -77.071049 0.000001 0.000001 -0.000001 5.709290 8.240792 -95.092817 8.194805 5.362627 -113.650352 3.053769 5.141125 -61.397861 -0.000000 -0.000001 0.000000 -3.440376 8.797294 -93.391752 7.145259 5.706631 -102.800323 6.901078 5.756404 -100.355792 0.000000 0.000003 -0.000003 10.865824 26.827591 2.963926 0.000000 0.000000 0.000000 -46.847885 38.723597 50.356574 0.000031 107.879484 -0.000046 -24.744592 13.727477 13.795269 -8.127549 -3.556521 -18.647074 26.048222 -37.885051 25.176156 5.904378 -26.366006 -20.675920 0.000001 0.000001 0.000000 19.390038 -6.733558 91.056168 5.924119 -4.481880 105.802355 3.970776 -4.606419 81.515480 -0.000001 0.000002 0.000002 11.102793 -6.063354 98.288546 5.648052 -4.550745 102.297683 3.617453 -4.539876 77.086335 0.000001 -0.000001 0.000001 4.274402 -6.978802 94.402456 6.520063 -4.269100 113.601646 2.432257 -4.092351 61.435564 -0.000004 -0.000001 -0.000003 -4.791107 -7.407631 92.634946 5.686470 -4.542235 102.782374 5.490859 -4.582101 100.323369 0.000001 -0.000001 -0.000001 -24.696668 14.114065 19.943645 38.376115 -4.407075 -0.336290 -3.513888 2.323566 -15.914909 -3.903670 -0.000003 0.000004 -0.000000 -0.000001 -0.000000 -25.518505 -0.061832 -21.338520 49.462925 2.916086 -7.759871 -15.960706 -3.403045 14.655711 -2.008434 0.000009 -0.000003 0.000000 0.000001 -0.000000 
-2.757576 102.559456 -1.920401 -10.733818 -52.183315 -0.547754 7.709399 0.226090 -4.798238 13.471026 1.247508 -5.375650 0.000000 0.000000 0.000000 13.463746 1.291632 -5.383111 3.970770 2.575121 -0.513153 -6.939626 39.500295 -7.024642 0.000003 0.000000 -0.000000 -0.604230 -6.510264 2.042939 0.000000 0.000000 0.000000 -15.274325 19.486422 -56.458067 -0.000009 -128.879632 -0.000011 -13.542272 1.471585 15.982701 -2.260595 6.272421 9.731079 25.893614 36.237210 -25.070921 4.652650 20.331252 19.858008 -0.000001 -0.000000 0.000001 20.016829 8.154979 -90.469325 7.394016 5.644621 -105.315377 4.939922 5.779927 -81.025899 0.000001 0.000001 0.000002 12.388803 7.393804 -97.702052 7.049953 5.727317 -101.843755 4.498362 5.693075 -76.610598 0.000002 -0.000000 -0.000002 5.767019 8.220515 -93.638239 8.149379 5.382233 -113.164842 3.014300 5.119471 -60.956378 -0.000000 -0.000001 -0.000001 -3.004428 8.580158 -92.228038 7.096481 5.717422 -102.310285 6.853393 5.764850 -99.880773 0.000000 0.000001 -0.000002 10.874062 26.686432 2.331218 0.000000 0.000000 0.000000 -47.669868 38.728959 52.535653 0.000155 105.112657 -0.000145 -23.149343 9.982433 13.220415 -8.137368 -3.262897 -18.533816 25.834236 -37.721175 25.070322 5.882230 -26.134947 -20.631117 0.000002 0.000000 -0.000000 19.001455 -7.055791 89.797016 5.881621 -4.493655 105.259239 3.931011 -4.600339 81.019847 -0.000001 -0.000002 -0.000000 10.888981 -6.283847 96.371503 5.608339 -4.559198 101.797720 3.579624 -4.531062 76.607846 0.000003 -0.000001 0.000000 4.247068 -6.963878 93.132457 6.482526 -4.285256 113.098377 2.399528 -4.074425 60.976172 0.000003 0.000002 0.000001 -4.332492 -7.193219 91.460092 5.648626 -4.550637 102.304725 5.450697 -4.589221 99.820961 -0.000001 -0.000002 -0.000002 -24.095343 13.303998 18.977831 36.734308 -4.043566 0.471181 -2.221737 2.364556 -16.936376 -5.669387 0.000012 -0.000001 0.000000 0.000000 -0.000000 -25.475873 -0.157571 -21.277860 50.076594 2.606195 -7.389585 -16.635672 -4.222858 13.157162 -1.965094 -0.000002 -0.000000 0.000000 -0.000000 -0.000000 
-3.343348 102.709923 -3.277153 -10.380927 -50.687073 0.244360 9.088652 0.160317 -5.514694 13.571646 1.134031 -5.519529 0.000000 0.000000 0.000000 13.568762 1.181512 -5.516783 3.692149 2.416213 -0.492110 -8.158097 37.043487 -7.461724 0.000001 0.000000 -0.000000 -0.610946 -7.055511 1.499511 0.000000 0.000000 0.000000 -13.733023 19.141718 -55.614426 -0.000015 -129.834615 -0.000023 -19.817027 3.436065 27.557080 -2.360259 5.784480 9.581073 25.946456 36.287757 -25.056998 4.646429 20.408534 19.873190 0.000001 -0.000000 -0.000001 19.194858 8.579348 -88.660049 7.323551 5.663366 -104.599867 4.873977 5.769186 -80.370624 -0.000000 -0.000001 -0.000004 12.119556 7.635060 -95.591380 6.983962 5.740710 -101.183338 4.436226 5.677984 -75.983157 -0.000002 0.000000 -0.000000 5.846694 8.203644 -91.657450 8.087076 5.408306 -112.502614 2.960785 5.089529 -60.355083 0.000000 0.000001 -0.000000 -2.404197 8.317325 -90.638789 7.029829 5.731492 -101.642176 6.788296 5.775761 -99.233141 -0.000001 0.000002 -0.000004 10.915523 26.508833 1.381150 0.000000 0.000000 0.000000 -49.008800 38.270148 54.704966 0.000028 102.389501 0.000000 -21.485280 5.843211 12.774793 -8.151695 -2.862860 -18.379831 25.543941 -37.497230 24.927986 5.851863 -25.820050 -20.570023 0.000000 0.000001 -0.000001 18.460331 -7.470848 88.074333 5.823463 -4.509060 104.518225 3.876847 -4.591461 80.343884 -0.000001 -0.000002 -0.000001 10.585440 -6.567961 93.757576 5.554079 -4.570174 101.115589 3.528157 -4.518544 75.955406 0.000001 -0.000002 -0.000002 4.210442 -6.945323 91.402520 6.431078 -4.306775 112.411656 2.355179 -4.049562 60.350069 -0.000000 -0.000001 -0.000003 -3.701463 -6.935055 89.854963 5.596847 -4.561584 101.653098 5.395802 -4.598347 99.135708 -0.000003 -0.000004 0.000003 -24.434845 11.771482 18.244547 35.477748 -3.527660 1.481220 1.465478 1.498168 -18.941660 -7.236284 -0.000018 -0.000001 -0.000000 0.000001 0.000000 -25.389797 -0.359987 -21.109982 50.629231 2.354719 -6.866356 -17.280689 -5.436236 11.570890 -2.082037 0.000006 -0.000001 -0.000000 -0.000001 0.000000 
